<?xml version="1.0" encoding="utf-8"?>
<!-- Generator: Adobe Illustrator 15.1.0, SVG Export Plug-In . SVG Version: 6.00 Build 0)  -->
<!DOCTYPE svg PUBLIC "-//W3C//DTD SVG 1.1//EN" "http://www.w3.org/Graphics/SVG/1.1/DTD/svg11.dtd">
<svg version="1.1" id="Layer_1" xmlns="http://www.w3.org/2000/svg" xmlns:xlink="http://www.w3.org/1999/xlink" x="0px" y="0px"
	 width="900px" height="243px" viewBox="0 0 900 243" enable-background="new 0 0 900 243" xml:space="preserve">
<g>
	<path fill="#0054A4" d="M2.753,3.591h42.062v56.805h53.981V3.591h42.064v151.757H98.797V97.683H44.816v57.666H2.753V3.591z"/>
	<path fill="#0054A4" d="M148.67,79.908v-0.434c0-44.227,34.687-78.916,81.733-78.916c26.668,0,45.524,8.237,61.575,22.112
		l-24.715,29.698c-10.848-9.103-21.687-14.301-36.641-14.301c-21.895,0-38.808,18.426-38.808,41.624v0.426
		c0,24.503,17.131,42.063,41.189,42.063c10.192,0,17.996-2.162,24.285-6.285V97.465h-29.925v-30.79h69.813v68.296
		c-16.037,13.22-38.367,23.415-65.902,23.415C184.013,158.387,148.67,125.866,148.67,79.908z"/>
	<path fill="#0054A4" d="M307.062,3.591h72.207c23.197,0,39.238,6.069,49.427,16.478c8.894,8.674,13.439,20.377,13.439,35.333v0.435
		c0,23.197-12.356,38.591-31.217,46.612l50.299,73.224h-49.043l-44.18-66.287h-0.437h-18.436v45.963h-42.061V3.591z M377.316,76.433
		c14.31,0,22.547-6.937,22.547-17.994v-0.435c0-11.923-8.674-17.992-22.766-17.992h-27.975v36.421H377.316z"/>
	<path fill="#58595B" d="M446.415,79.908v-0.434c0-43.583,35.123-78.916,81.946-78.916c46.827,0,81.517,34.906,81.517,78.476v0.44
		c0,43.578-35.115,78.913-81.947,78.913C481.101,158.387,446.415,123.479,446.415,79.908z M566.954,79.908v-0.434
		c0-21.898-15.823-40.981-39.023-40.981c-22.98,0-38.376,18.648-38.376,40.541v0.44c0,21.895,15.833,40.969,38.807,40.969
		C551.558,120.443,566.954,101.802,566.954,79.908z"/>
	<path fill="#58595B" d="M617.379,88.791v-85.2h42.704v84.336c0,21.892,11.061,32.306,27.973,32.306
		c16.913,0,27.969-9.974,27.969-31.226V3.591h42.706V87.71c0,48.996-27.97,70.457-71.109,70.457
		C644.475,158.167,617.379,136.271,617.379,88.791z"/>
	<path fill="#58595B" d="M769.159,3.591h65.039c38.377,0,63.089,19.724,63.089,53.328v0.439c0,35.77-27.53,54.636-65.257,54.636
		h-20.812v43.354h-42.06V3.591z M831.168,79.033c14.955,0,24.058-7.8,24.058-19.729v-0.425c0-13.015-9.103-19.952-24.273-19.952
		h-19.733v40.106H831.168z"/>
	<rect x="2.713" y="169.408" fill="#0054A4" width="893.442" height="13.564"/>
	<rect x="2.713" y="228.879" fill="#58595B" width="893.442" height="13.563"/>
	<g>
		<path fill="#58595B" d="M34.986,219.229v-12.396H18.053v12.396h-1.965v-26.455h1.965v12.245h16.933v-12.245h1.968v26.455H34.986z"
			/>
		<path fill="#58595B" d="M77.856,219.682c-8.351,0-13.304-6.162-13.304-13.605V206c0-7.142,5.18-13.68,13.077-13.68
			c4.309,0,7.032,1.283,9.675,3.477l-1.283,1.473c-2.077-1.813-4.496-3.173-8.504-3.173c-6.426,0-10.923,5.44-10.923,11.829V206
			c0,6.843,4.269,11.944,11.34,11.944c3.363,0,6.501-1.398,8.428-3.023v-7.597h-8.846v-1.816H88.25v10.204
			C85.872,217.829,82.167,219.682,77.856,219.682z"/>
		<path fill="#58595B" d="M136.542,219.229l-8.429-10.959h-8.655v10.959h-1.966v-26.455h11.113c5.708,0,9.448,3.095,9.448,7.52
			v0.077c0,4.42-3.287,6.954-7.748,7.559l8.73,11.3H136.542z M136.088,200.37c0-3.555-2.795-5.786-7.597-5.786h-9.034v11.907h8.919
			c4.425,0,7.711-2.229,7.711-6.047V200.37z"/>
		<path fill="#58595B" d="M200.036,219.229v-26.455H202v26.455H200.036z"/>
		<path fill="#58595B" d="M251.671,219.229l-18.633-23.509v23.509h-1.891v-26.455H233l18.253,23.017v-23.017h1.891v26.455H251.671z"
			/>
		<path fill="#58595B" d="M291.016,219.607c-4.231,0-7.484-1.398-10.658-4.232l1.288-1.473c2.91,2.682,5.593,3.927,9.484,3.927
			c3.968,0,6.688-2.229,6.688-5.253V212.5c0-2.792-1.473-4.42-7.482-5.63c-6.351-1.283-8.918-3.438-8.918-7.444v-0.074
			c0-3.931,3.589-6.957,8.503-6.957c3.856,0,6.387,1.058,9.07,3.21l-1.247,1.552c-2.493-2.154-4.99-2.987-7.9-2.987
			c-3.893,0-6.459,2.231-6.459,4.99v0.072c0,2.799,1.435,4.503,7.709,5.787c6.123,1.245,8.694,3.438,8.694,7.294v0.078
			C299.787,216.658,296.117,219.607,291.016,219.607z"/>
		<path fill="#58595B" d="M338.206,219.646c-6.348,0-10.844-4.009-10.844-11.415v-15.458h1.965v15.268
			c0,6.237,3.364,9.827,8.958,9.827c5.366,0,8.804-3.249,8.804-9.637v-15.458h1.966v15.232
			C349.054,215.6,344.632,219.646,338.206,219.646z"/>
		<path fill="#58595B" d="M396.809,219.229l-8.428-10.959h-8.655v10.959h-1.965v-26.455h11.113c5.708,0,9.447,3.095,9.447,7.52
			v0.077c0,4.42-3.286,6.954-7.746,7.559l8.728,11.3H396.809z M396.355,200.37c0-3.555-2.793-5.786-7.596-5.786h-9.034v11.907h8.919
			c4.423,0,7.71-2.229,7.71-6.047V200.37z"/>
		<path fill="#58595B" d="M448.984,219.229l-3.364-7.408h-15.61l-3.365,7.408h-2.04l12.32-26.646h1.891l12.322,26.646H448.984z
			 M437.834,194.739l-6.991,15.307h13.944L437.834,194.739z"/>
		<path fill="#58595B" d="M498.779,219.229l-18.632-23.509v23.509h-1.891v-26.455h1.853l18.252,23.017v-23.017h1.891v26.455H498.779
			z"/>
		<path fill="#58595B" d="M540.871,219.682c-7.56,0-13.155-6.009-13.155-13.605V206c0-7.485,5.596-13.68,13.229-13.68
			c4.727,0,7.558,1.737,10.282,4.229l-1.401,1.437c-2.307-2.229-4.951-3.89-8.92-3.89c-6.35,0-11.147,5.177-11.147,11.829V206
			c0,6.689,4.872,11.908,11.187,11.908c3.818,0,6.426-1.479,9.108-4.119l1.322,1.284
			C548.582,217.829,545.555,219.682,540.871,219.682z"/>
		<path fill="#58595B" d="M579.053,219.229v-26.455h18.822v1.811h-16.856v10.396h15.158v1.816h-15.158v10.618h17.049v1.814H579.053z
			"/>
		<path fill="#58595B" d="M671.328,219.682c-8.352,0-13.305-6.162-13.305-13.605V206c0-7.142,5.18-13.68,13.078-13.68
			c4.307,0,7.031,1.283,9.675,3.477l-1.283,1.473c-2.077-1.813-4.496-3.173-8.505-3.173c-6.426,0-10.922,5.44-10.922,11.829V206
			c0,6.843,4.271,11.944,11.337,11.944c3.364,0,6.504-1.398,8.431-3.023v-7.597h-8.846v-1.816h10.733v10.204
			C679.341,217.829,675.637,219.682,671.328,219.682z"/>
		<path fill="#58595B" d="M729.892,219.229l-8.427-10.959h-8.655v10.959h-1.966v-26.455h11.112c5.707,0,9.447,3.095,9.447,7.52
			v0.077c0,4.42-3.284,6.954-7.745,7.559l8.729,11.3H729.892z M729.441,200.37c0-3.555-2.796-5.786-7.599-5.786h-9.033v11.907h8.919
			c4.423,0,7.713-2.229,7.713-6.047V200.37z"/>
		<path fill="#58595B" d="M771.294,219.682c-8.012,0-13.265-6.387-13.265-13.605V206c0-7.221,5.327-13.68,13.344-13.68
			c8.014,0,13.262,6.385,13.262,13.605c0.043,0.035,0.043,0.035,0,0.074C784.635,213.221,779.306,219.682,771.294,219.682z
			 M782.596,206c0-6.539-4.763-11.903-11.302-11.903c-6.535,0-11.222,5.29-11.222,11.829V206c0,6.539,4.762,11.908,11.301,11.908
			s11.223-5.293,11.223-11.832V206z"/>
		<path fill="#58595B" d="M822.726,219.646c-6.351,0-10.843-4.009-10.843-11.415v-15.458h1.964v15.268
			c0,6.237,3.365,9.827,8.954,9.827c5.368,0,8.807-3.249,8.807-9.637v-15.458h1.966v15.232
			C833.573,215.6,829.151,219.646,822.726,219.646z"/>
		<path fill="#58595B" d="M872.207,209.364h-7.145v9.864h-1.964v-26.455h9.603c5.818,0,9.827,2.984,9.827,8.086v0.074
			C882.528,206.491,877.729,209.364,872.207,209.364z M880.56,200.975c0-4.196-3.249-6.391-8.012-6.391h-7.485v12.968h7.258
			c4.914,0,8.239-2.572,8.239-6.503V200.975z"/>
	</g>
</g>
</svg>
